<?xml version="1.0" standalone="no"?>
<!DOCTYPE svg PUBLIC "-//W3C//DTD SVG 20010904//EN"
 "http://www.w3.org/TR/2001/REC-SVG-20010904/DTD/svg10.dtd">
<svg version="1.0" xmlns="http://www.w3.org/2000/svg"
 width="300.000000pt" height="288.000000pt" viewBox="0 0 300.000000 288.000000"
 preserveAspectRatio="xMidYMid meet">
<metadata>
Created by potrace 1.10, written by Peter Selinger 2001-2011
</metadata>
<g transform="translate(0.000000,288.000000) scale(0.100000,-0.100000)"
fill="#2aa088" stroke="none">
<path d="M1184 2611 c-75 -18 -122 -68 -105 -113 l8 -22 11 21 c7 12 29 27 49
33 21 7 48 21 60 32 24 22 43 17 43 -11 0 -24 -30 -50 -72 -61 -19 -6 -43 -16
-53 -24 -20 -14 -20 -15 3 -38 29 -32 28 -36 -11 -35 -47 1 -107 -33 -129 -73
-22 -42 -23 -101 -2 -142 16 -31 20 -32 82 -13 37 12 17 -15 -50 -65 -33 -25
-74 -64 -91 -87 -30 -42 -30 -42 -17 -103 7 -33 16 -60 21 -60 5 0 31 9 59 20
28 11 56 20 62 20 6 0 -21 -30 -60 -67 -94 -90 -114 -160 -72 -244 37 -71 57
-77 253 -75 110 1 180 6 194 14 48 26 37 150 -17 195 -64 55 -148 58 -261 12
-32 -12 -61 -20 -65 -17 -4 4 -4 2 0 -5 4 -8 16 -9 36 -3 17 5 31 9 33 9 1 0
16 5 32 12 40 16 163 18 173 2 4 -6 14 -13 22 -15 44 -9 70 -132 36 -166 -14
-14 -41 -17 -179 -18 -152 -1 -164 0 -198 22 -27 17 -39 33 -48 67 -13 44 -7
107 9 107 4 0 11 11 14 24 6 24 35 57 93 106 40 34 34 65 -11 55 -17 -4 -39
-8 -48 -8 -9 -1 -14 -5 -11 -10 3 -5 -5 -7 -18 -5 -16 2 -25 12 -32 37 -13 52
3 81 90 160 12 10 23 18 25 15 3 -2 18 10 33 26 24 25 27 34 19 48 -10 15 -26
17 -79 9 -5 -1 -14 15 -19 36 -20 80 28 145 118 161 43 8 50 19 37 56 -10 30
-9 31 6 19 10 -9 14 -9 10 -2 -5 8 8 19 37 31 24 11 49 29 55 40 14 26 14 62
1 62 -5 0 -10 5 -10 11 0 8 12 9 37 4 52 -9 58 -15 34 -31 -28 -20 -22 -51 16
-92 37 -39 40 -54 18 -72 -19 -15 -15 -39 14 -105 12 -27 23 -58 24 -67 1 -9
5 -14 9 -12 4 3 8 -13 8 -36 0 -25 -4 -39 -10 -35 -5 3 -10 -1 -10 -10 0 -9
-7 -27 -16 -40 -9 -14 -14 -25 -11 -25 3 0 0 -11 -7 -26 -9 -17 -11 -35 -5
-57 33 -125 33 -127 18 -141 -8 -8 -43 -17 -79 -20 -92 -7 -132 -15 -158 -32
-12 -8 -26 -12 -31 -9 -5 2 -12 -2 -15 -11 -4 -9 -9 -14 -12 -11 -3 3 -15 -4
-26 -15 -33 -33 -14 -31 53 6 62 34 139 53 239 58 39 3 46 7 54 31 7 19 6 40
-3 70 -27 87 -25 117 12 195 40 83 40 81 -17 205 -33 72 -36 93 -8 65 9 -9 12
-3 12 31 0 34 -6 48 -29 69 -16 15 -33 37 -40 49 -10 20 -9 21 29 16 44 -6 47
-3 24 32 -26 40 -107 56 -190 36z m16 -25 c0 -2 -20 -16 -45 -29 -45 -26 -60
-23 -27 5 24 21 72 37 72 24z"/>
<path d="M1732 2607 c-7 -8 -7 -18 -2 -27 6 -8 10 -31 10 -50 l0 -35 -32 32
c-26 27 -29 34 -19 47 11 13 10 17 -3 22 -42 16 -30 -41 19 -93 44 -47 45 -79
5 -118 -16 -16 -33 -25 -37 -21 -5 4 -8 33 -8 64 0 44 -4 57 -15 57 -11 0 -14
-10 -12 -37 3 -46 -2 -48 -23 -8 -15 28 -14 33 2 61 28 48 -9 87 -52 55 -19
-14 -19 -16 -2 -44 9 -17 17 -39 17 -50 0 -11 16 -37 35 -58 32 -34 35 -42 35
-97 l0 -61 -26 35 c-19 26 -24 41 -19 67 4 24 2 32 -9 32 -22 0 -30 -19 -15
-36 6 -8 9 -18 5 -21 -14 -14 -27 23 -21 60 4 28 2 37 -9 37 -8 0 -17 -4 -20
-8 -11 -19 16 -81 51 -117 25 -25 33 -40 24 -43 -7 -2 -19 6 -28 18 -11 15
-19 18 -26 11 -16 -16 11 -41 44 -41 22 0 41 -12 74 -47 25 -26 45 -48 45 -50
0 -12 -48 13 -65 34 -19 23 -22 23 -34 9 -11 -13 -10 -17 12 -25 14 -5 28 -15
32 -20 3 -6 21 -11 39 -11 45 0 56 -16 56 -80 0 -52 -11 -80 -33 -80 -4 0 -5
4 -2 10 8 13 -37 91 -50 87 -20 -7 -15 -32 7 -42 26 -11 35 -53 18 -85 -14
-27 -30 -25 -30 3 0 13 -11 34 -25 47 -17 16 -25 34 -25 56 0 18 -8 47 -17 66
-9 18 -19 40 -23 48 -10 21 -35 24 -54 5 -9 -9 -16 -19 -16 -23 1 -16 20 -35
37 -37 32 -2 43 -15 43 -49 0 -22 10 -46 30 -71 36 -45 38 -75 8 -116 l-22
-29 -11 32 c-7 20 -8 45 -3 63 8 31 -3 52 -22 40 -6 -4 -9 -20 -6 -38 3 -18 3
-26 0 -19 -7 14 -30 16 -39 2 -3 -5 7 -16 23 -24 41 -21 47 -54 18 -86 -24
-24 -24 -31 -28 -213 -3 -162 -5 -190 -19 -198 -24 -13 -24 -265 0 -293 13
-15 17 -49 19 -184 l4 -166 44 -49 44 -50 -25 -31 c-39 -47 -50 -75 -38 -87
17 -17 34 -1 27 25 -3 15 2 28 15 40 21 19 21 19 21 -21 0 -42 -21 -68 -90
-115 -20 -13 -23 -19 -13 -29 11 -10 22 -3 63 42 29 32 49 64 50 78 0 24 0 24
21 5 17 -15 20 -26 15 -56 -6 -34 -4 -38 15 -38 17 0 20 4 15 23 -3 12 -6 30
-6 40 0 9 -13 31 -30 49 -16 17 -30 40 -30 52 0 17 7 13 45 -24 43 -42 45 -47
45 -101 0 -65 -18 -89 -69 -89 -30 0 -111 -44 -111 -61 0 -22 24 -17 49 10 16
17 39 31 51 31 20 0 19 -4 -19 -45 -25 -27 -41 -54 -41 -69 0 -14 -5 -28 -10
-31 -6 -3 -10 -17 -10 -30 0 -32 44 -46 67 -22 15 14 15 18 0 41 -10 14 -17
34 -17 44 0 24 75 110 86 99 4 -4 -2 -17 -13 -30 -12 -12 -24 -39 -28 -60 -6
-31 -4 -37 10 -37 14 0 16 6 11 34 -5 25 -2 37 10 47 16 13 17 7 11 -89 -5
-83 -4 -102 8 -102 19 0 21 13 15 81 -3 32 -3 59 1 59 16 0 30 -32 27 -62 -2
-24 1 -33 12 -33 24 0 14 65 -15 95 -20 21 -25 36 -25 76 0 27 7 58 15 68 8
11 15 40 15 64 0 39 2 43 16 31 12 -10 14 -23 9 -57 -6 -39 -4 -43 12 -40 13
3 17 11 15 33 l-4 30 26 -24 c28 -26 35 -75 12 -84 -14 -6 -48 -96 -40 -109 3
-4 11 -8 19 -8 10 0 15 16 17 52 2 28 8 53 13 55 16 5 5 -119 -12 -139 -19
-22 -20 -67 -2 -79 28 -17 68 -10 85 16 15 23 15 27 -2 53 -18 25 -37 162 -23
162 3 0 16 -11 28 -24 19 -20 22 -33 19 -73 -2 -38 0 -48 12 -48 11 0 14 10
12 39 -3 34 -1 38 11 27 21 -17 29 -55 18 -84 -11 -29 1 -52 23 -44 13 5 14
12 6 32 -6 15 -10 38 -10 53 0 18 -15 42 -47 75 l-48 48 34 -6 c43 -7 51 -12
51 -31 0 -15 25 -20 34 -6 13 22 -70 66 -114 60 -24 -4 -29 0 -34 22 -3 18
-50 71 -138 154 l-133 127 45 -3 c38 -3 48 -8 65 -35 20 -32 45 -39 52 -16 3
7 -6 17 -19 22 -13 5 -30 16 -37 25 -7 9 -20 16 -28 16 -8 0 -13 6 -10 13 3 7
21 11 51 10 39 -1 47 1 44 15 -2 11 -11 16 -23 14 -11 -2 -29 -5 -40 -6 -11
-2 -35 -12 -53 -23 -38 -24 -61 -21 -91 11 -18 19 -20 30 -14 89 5 57 8 65 21
55 11 -9 13 -25 8 -66 -6 -48 -4 -53 11 -50 10 2 18 9 17 16 -1 6 -2 28 -2 47
-1 21 -12 47 -29 67 -27 31 -28 37 -23 113 5 73 7 80 27 83 25 4 28 -4 38
-100 3 -31 13 -62 21 -69 8 -6 14 -27 14 -46 0 -38 25 -83 46 -83 22 0 16 31
-6 37 -19 5 -38 48 -27 60 3 3 23 -9 44 -26 21 -17 47 -31 60 -31 12 0 35 -12
52 -26 37 -31 42 -76 12 -108 -25 -27 -33 -101 -11 -101 11 0 14 10 12 41 -2
25 1 45 9 49 9 6 11 -11 7 -74 -4 -63 -2 -81 9 -81 10 0 13 26 13 116 0 102 2
115 15 104 11 -9 15 -34 15 -96 0 -59 4 -85 14 -91 24 -15 37 -50 27 -76 -11
-28 -6 -37 20 -37 16 0 17 4 9 26 -16 42 -12 49 15 24 18 -17 25 -34 25 -60 0
-26 8 -45 25 -64 18 -20 25 -38 25 -69 0 -61 10 -87 31 -87 25 0 24 26 -1 33
-15 4 -20 14 -20 41 0 48 18 46 37 -4 17 -43 49 -54 72 -26 17 20 -3 56 -29
56 -11 0 -34 13 -52 30 l-33 29 27 1 c41 0 76 -16 83 -40 4 -12 13 -20 23 -18
58 11 -38 78 -112 78 -46 0 -46 0 -46 35 0 27 -9 45 -40 79 -22 24 -40 46 -40
49 0 15 48 -9 73 -36 25 -28 28 -30 43 -16 14 15 12 18 -22 36 -57 29 -57 47
0 39 39 -6 46 -5 46 10 0 14 -7 15 -47 9 -27 -4 -52 -11 -58 -16 -5 -5 -22 -9
-37 -9 -27 0 -28 2 -28 49 0 27 -3 58 -6 68 -4 10 12 -1 37 -24 43 -41 48 -43
105 -43 84 0 103 -23 65 -78 -11 -15 -22 -44 -26 -65 -5 -33 -4 -37 14 -37 19
0 20 5 15 44 -4 27 -2 46 5 50 7 5 11 -8 11 -41 1 -45 5 -52 66 -117 52 -55
67 -67 77 -57 9 10 8 16 -8 25 -11 6 -41 32 -67 57 -36 35 -48 53 -48 75 l1
29 34 -40 c28 -33 36 -38 47 -27 11 11 10 15 -4 23 -49 27 -78 62 -78 92 l0
31 55 -54 c31 -31 55 -63 55 -75 0 -32 28 -65 55 -65 25 0 65 35 65 56 0 19
-51 55 -69 49 -15 -4 -91 53 -91 69 0 12 65 -5 85 -23 27 -25 86 -44 98 -32
17 17 -4 32 -37 26 -24 -5 -36 -2 -50 14 -18 20 -18 20 30 17 27 -2 55 -5 63
-7 8 -2 16 3 18 12 3 13 -8 15 -84 12 l-88 -4 24 21 c20 17 32 20 63 15 31 -6
38 -4 38 10 0 25 -87 10 -121 -21 -34 -32 -52 -30 -98 11 -35 32 -44 35 -99
35 -51 0 -66 4 -89 25 l-28 25 45 -5 c25 -3 56 -8 70 -10 30 -4 55 8 46 23 -3
6 -30 8 -66 5 -43 -4 -60 -2 -60 6 0 8 12 11 32 9 25 -2 34 1 36 15 5 25 -28
22 -73 -9 l-38 -26 -46 46 -46 46 94 0 c91 0 95 -1 132 -32 76 -65 102 -81
142 -89 43 -8 65 1 53 20 -4 6 -18 8 -32 5 -29 -7 -74 2 -74 16 0 6 28 10 61
10 54 0 65 -4 96 -30 19 -17 48 -33 64 -37 16 -3 32 -10 35 -14 8 -14 40 -10
54 6 20 24 3 55 -30 55 -16 0 -32 -5 -35 -10 -11 -18 -37 -11 -72 20 -18 16
-44 30 -56 30 -21 1 -21 2 6 25 35 31 48 31 84 2 34 -28 104 -50 117 -37 5 5
6 16 2 25 -4 12 -10 14 -25 5 -29 -15 -46 -12 -72 11 l-24 20 83 -4 c72 -5 83
-3 80 11 -3 13 -19 15 -113 13 -109 -3 -110 -3 -147 -37 -21 -19 -47 -34 -58
-34 -27 0 -25 10 8 36 25 21 25 23 8 30 -13 5 -22 2 -28 -11 -14 -24 -46 -55
-58 -55 -5 0 -27 16 -49 35 -37 34 -41 35 -122 35 -75 0 -81 1 -63 15 13 10
45 14 102 15 64 0 82 3 82 14 0 12 -11 13 -57 9 -43 -5 -54 -3 -49 6 5 7 20
11 34 10 31 -4 55 8 47 21 -7 11 -64 2 -82 -12 -34 -27 -127 -78 -142 -78 -9
0 -25 7 -35 15 -11 8 -30 15 -42 15 -12 0 -50 21 -84 47 l-61 48 4 58 c3 48 8
62 29 80 14 12 29 34 32 48 5 22 13 28 43 32 32 4 43 0 67 -23 l28 -28 -22
-30 c-22 -30 -45 -116 -34 -133 3 -5 11 -9 19 -9 10 0 12 12 8 53 -4 41 -2 56
11 66 14 12 16 10 16 -15 1 -33 12 -56 57 -109 17 -20 36 -34 42 -31 19 12 12
34 -11 40 -24 6 -68 63 -68 87 1 8 13 -1 30 -21 24 -28 32 -32 42 -21 11 11 9
15 -6 25 -38 22 -66 55 -66 77 0 13 -12 36 -27 51 l-27 28 54 0 c51 0 56 -2
111 -55 44 -42 65 -55 88 -55 36 0 71 -39 71 -79 0 -15 5 -32 10 -37 6 -6 13
-21 15 -34 8 -42 56 -55 75 -20 8 15 6 23 -11 39 -12 11 -27 17 -34 14 -16 -5
-35 26 -35 58 0 12 -7 30 -16 40 -16 17 -13 18 61 17 74 -1 80 -2 116 -35 44
-40 48 -55 19 -74 -11 -8 -23 -29 -26 -48 -6 -29 -5 -33 12 -29 12 2 18 11 17
23 -5 46 8 47 38 1 30 -45 48 -54 57 -28 2 7 -7 16 -21 21 -26 10 -37 29 -37
64 l0 21 16 -22 c9 -14 26 -22 43 -22 16 0 40 -9 54 -20 32 -25 59 -25 82 0
25 27 10 71 -28 84 -22 8 -31 6 -50 -12 -33 -31 -61 -27 -105 13 l-37 34 32 1
c17 0 35 5 38 10 3 6 33 10 66 10 44 0 60 3 56 13 -2 8 -19 11 -47 9 -30 -3
-40 -1 -35 8 4 7 30 10 70 8 65 -3 82 2 71 21 -4 6 -27 9 -54 6 -43 -4 -45 -4
-19 7 15 7 27 17 27 24 0 29 -22 22 -67 -22 -53 -52 -100 -84 -124 -84 -8 0
-31 12 -50 26 -27 20 -42 24 -71 21 -21 -3 -38 -3 -38 0 0 5 51 49 81 71 15
10 22 8 46 -12 29 -25 104 -40 100 -21 -1 6 -17 10 -34 10 -18 1 -41 9 -50 19
-17 17 -16 17 35 13 49 -3 57 0 104 35 29 21 59 38 69 38 20 0 31 23 22 46 -9
23 -67 15 -71 -11 -2 -11 -17 -34 -34 -51 -29 -31 -33 -32 -116 -33 l-86 0
-51 -51 c-50 -49 -51 -50 -114 -50 -52 0 -68 4 -92 24 l-29 25 37 30 c34 28
39 29 58 16 11 -9 27 -18 35 -21 8 -3 22 -9 32 -14 11 -6 20 -5 28 5 15 18 -3
29 -34 21 -15 -4 -28 0 -36 9 -11 13 -8 15 18 15 17 0 42 -4 56 -9 18 -7 28
-6 36 5 15 17 14 17 -85 14 -44 -1 -86 -7 -93 -12 -7 -6 -15 -9 -17 -6 -11 11
9 39 37 54 28 14 34 39 11 39 -18 0 -73 -76 -73 -101 0 -29 -21 -31 -45 -4
-16 18 -31 20 -127 20 -89 0 -110 3 -115 16 -11 28 13 36 117 35 l103 -1 58
55 c32 30 63 55 70 55 6 0 34 -20 60 -45 36 -33 56 -45 79 -45 17 0 43 -9 58
-20 35 -25 87 -31 87 -10 0 11 -11 15 -37 15 -20 0 -40 4 -45 8 -4 5 21 7 57
5 56 -3 65 -1 68 15 3 17 -3 18 -82 11 -65 -5 -86 -4 -86 5 0 9 15 12 48 10
36 -3 47 0 47 11 0 22 -73 14 -108 -11 l-28 -20 -28 20 c-60 43 -57 46 61 49
107 2 112 3 145 32 18 17 38 30 43 30 10 0 54 -29 112 -74 36 -27 68 -30 68
-6 0 10 -12 14 -41 11 -9 -1 -22 6 -30 15 -12 15 -8 16 41 13 44 -3 55 -1 55
11 0 12 -12 14 -64 12 -47 -3 -72 1 -97 14 -19 10 -34 22 -34 26 0 11 51 48
67 48 7 0 27 -10 43 -21 35 -26 76 -19 91 15 25 55 -40 96 -91 57 -16 -11 -38
-21 -50 -21 -11 0 -41 -19 -65 -41 l-45 -42 0 28 c0 18 11 38 35 59 39 36 43
46 18 46 -25 -1 -63 -64 -63 -104 0 -43 -37 -79 -76 -74 l-29 4 28 14 c31 15
36 40 7 40 -11 0 -20 -6 -20 -13 0 -19 -33 -47 -53 -47 -12 0 -17 9 -17 29 0
24 18 47 107 130 59 56 112 101 119 101 6 0 19 -9 29 -20 18 -20 92 -46 102
-36 3 3 3 12 0 20 -5 12 -12 13 -29 7 -16 -6 -30 -4 -45 7 -27 17 -30 32 -5
27 9 -2 41 -6 70 -9 45 -4 53 -3 50 11 -2 14 -16 16 -87 14 l-84 -2 31 26 c18
15 44 30 59 34 23 6 28 13 28 37 0 24 -4 29 -25 29 -16 0 -29 -8 -36 -24 -12
-24 -233 -251 -245 -251 -3 0 -4 13 -1 30 4 31 53 89 107 127 26 19 28 23 13
28 -13 5 -30 -6 -63 -41 -38 -42 -44 -46 -45 -27 0 13 10 29 25 39 29 19 33
34 9 34 -23 0 -43 -29 -44 -65 -2 -44 -26 -104 -34 -85 -4 9 -5 27 -4 40 2 17
-2 25 -12 25 -22 0 -16 -53 10 -80 25 -27 25 -29 -6 -71 -18 -23 -25 -42 -22
-59 5 -25 4 -25 -57 -25 -49 0 -68 -5 -90 -22 l-27 -21 7 24 c4 13 25 42 46
64 21 23 39 49 39 60 0 10 8 27 17 37 23 26 6 53 -33 53 -23 0 -30 -5 -32 -24
-2 -13 1 -28 7 -34 19 -19 12 -39 -29 -83 -30 -33 -40 -52 -40 -78 0 -18 -8
-43 -17 -55 -17 -20 -26 -22 -128 -19 -64 2 -110 7 -110 13 -2 26 -18 55 -34
60 -32 10 -43 121 -15 149 22 23 87 21 109 -4 10 -11 18 -28 19 -37 2 -34 31
-83 48 -83 27 0 22 29 -7 40 -14 5 -25 17 -25 25 0 12 7 15 33 11 72 -12 81
-11 85 6 3 15 -3 16 -45 12 -41 -5 -51 -3 -67 15 l-20 22 43 -7 c35 -6 43 -4
39 7 -3 9 -24 15 -64 16 -32 2 -71 4 -86 4 -36 2 -35 10 2 37 22 17 43 22 86
22 44 0 63 5 79 20 16 15 47 24 111 32 70 9 95 17 120 37 17 14 39 31 49 37
11 6 15 15 11 22 -12 20 -30 13 -53 -22 -21 -33 -83 -66 -83 -45 0 6 9 13 20
16 19 5 26 23 14 36 -9 9 -34 -4 -34 -18 0 -21 -50 -55 -80 -55 -27 0 -25 3
38 64 l67 64 117 7 c107 7 119 6 150 -13 42 -26 93 -33 93 -12 0 11 -9 14 -37
12 -20 -1 -39 2 -43 8 -3 5 0 10 8 10 22 0 107 60 107 76 0 24 -22 15 -54 -22
-25 -29 -36 -35 -61 -32 l-30 4 28 12 c28 12 35 26 16 38 -7 4 -22 -7 -36 -25
-19 -24 -32 -31 -59 -31 l-35 0 68 60 c37 33 77 60 88 60 63 0 86 72 32 98
-38 18 -77 -5 -77 -47 0 -16 -8 -35 -17 -42 -15 -12 -16 -12 -10 3 7 19 -17
45 -27 29 -4 -6 -4 -21 -1 -33 6 -22 -25 -78 -43 -78 -4 0 -6 36 -4 80 3 75 5
80 28 85 59 12 70 16 88 30 15 12 17 18 8 27 -9 9 -17 5 -36 -15 -14 -15 -35
-27 -47 -27 -17 0 -10 9 34 47 52 43 63 64 34 63 -7 -1 -25 -19 -42 -40 -16
-21 -33 -39 -37 -40 -16 0 -7 30 14 50 24 22 17 40 -10 24 -9 -6 -18 -26 -20
-45 -2 -19 -9 -48 -17 -66 -8 -17 -15 -59 -15 -93 0 -39 -4 -59 -10 -55 -6 4
-9 18 -8 33 2 19 -2 27 -16 30 -16 3 -18 0 -12 -24 4 -15 16 -40 27 -55 10
-15 19 -30 19 -33 0 -12 -74 -25 -89 -16 -14 8 -14 9 2 10 16 0 23 20 11 33
-10 9 -34 -4 -34 -19 0 -8 -15 -20 -32 -27 -18 -8 -39 -21 -47 -30 -22 -27
-26 -20 -23 40 5 71 14 83 61 83 40 0 121 52 121 77 0 23 -25 14 -52 -21 -24
-30 -73 -54 -85 -42 -3 3 11 19 31 36 30 27 36 39 36 72 0 35 3 39 23 37 43
-5 87 11 87 32 0 25 -30 25 -37 -1 -3 -12 -14 -20 -26 -20 -18 0 -12 9 32 54
29 29 67 58 85 63 23 6 32 15 34 35 6 51 -65 48 -75 -3 -3 -16 -12 -34 -20
-41 -12 -10 -14 -7 -11 17 2 15 -2 30 -8 32 -16 5 -27 -29 -13 -38 9 -5 7 -16
-7 -40 -31 -53 -44 -48 -44 14 0 50 3 58 35 86 20 17 40 31 45 31 6 0 10 9 10
20 0 28 -14 25 -40 -7 l-21 -28 6 36 c4 27 2 38 -9 42 -22 9 -26 -2 -19 -48 3
-26 1 -45 -6 -49 -6 -4 -11 -31 -11 -59 0 -29 -5 -59 -10 -67 -11 -17 -12 -14
-14 40 -1 15 -7 25 -16 25 -23 0 -14 -45 15 -75 25 -26 25 -26 5 -43 -11 -10
-20 -29 -20 -46 0 -31 -33 -81 -46 -69 -4 4 -1 14 5 22 16 19 6 37 -15 29 -12
-4 -14 -14 -10 -36 5 -22 0 -36 -19 -59 -18 -21 -25 -41 -25 -69 0 -24 -4 -38
-10 -34 -6 3 -7 17 -4 31 5 18 2 24 -9 24 -9 0 -19 -4 -22 -10 -7 -12 13 -52
31 -63 25 -15 15 -52 -24 -90 -21 -20 -40 -37 -42 -37 -3 0 -5 35 -5 77 0 45
-4 78 -10 78 -6 0 -9 -24 -7 -57 3 -38 0 -58 -7 -58 -6 0 -11 16 -11 35 0 24
-5 35 -15 35 -23 0 -18 -33 10 -75 29 -42 26 -70 -8 -79 -29 -8 -112 -8 -120
0 -3 3 10 30 29 60 42 66 41 88 -4 92 -40 4 -51 -18 -27 -54 16 -25 16 -27 -4
-48 -12 -12 -21 -36 -21 -52 0 -22 -12 -41 -45 -74 -43 -42 -44 -45 -47 -114
-3 -69 -4 -71 -30 -74 -26 -3 -26 -3 -30 75 l-3 78 56 57 c49 50 64 77 69 126
1 4 -6 9 -15 10 -14 3 -16 -2 -11 -25 4 -19 1 -35 -9 -48 -15 -19 -16 -16 -11
46 5 70 1 86 -20 68 -9 -8 -10 -18 -3 -35 5 -14 9 -47 9 -73 0 -39 -5 -52 -28
-74 -15 -15 -31 -27 -35 -27 -4 0 -7 42 -7 93 l0 94 73 64 c39 36 77 68 84 72
7 4 34 -5 62 -20 38 -21 53 -25 62 -16 18 18 0 35 -31 28 -17 -4 -31 -2 -36 6
-5 9 6 11 49 6 34 -3 59 -1 63 5 13 20 -12 26 -78 19 -38 -4 -68 -4 -68 0 0 9
72 69 83 69 4 0 20 -9 35 -19 35 -25 97 -32 97 -11 0 11 -11 15 -39 15 -48 0
-59 20 -12 21 24 0 46 11 74 35 21 19 47 39 57 45 11 6 15 15 11 22 -10 16
-36 15 -36 -1 0 -8 -9 -22 -20 -32 -19 -18 -20 -17 -20 6 0 29 9 43 33 52 21
8 18 31 -4 35 -17 3 -47 -60 -51 -108 -3 -35 -3 -35 -60 -40 -32 -3 -58 -3
-58 -1 0 2 16 19 35 38 24 23 35 43 35 63 0 36 50 80 90 80 32 0 99 38 100 58
0 21 -21 13 -50 -18 -15 -16 -36 -30 -46 -30 -13 0 2 20 49 68 44 44 67 75 67
91 0 13 7 38 16 57 13 28 14 37 4 50 -30 36 -84 -5 -62 -48 21 -44 18 -63 -22
-109 l-38 -44 4 138 c3 120 2 137 -12 134 -9 -1 -14 -11 -12 -22 7 -48 7 -107
0 -111 -9 -6 -19 33 -15 61 1 12 -4 20 -13 20 -21 0 -15 -52 10 -86 12 -17 19
-47 21 -83 3 -57 2 -58 -48 -108 l-52 -51 6 44 c3 24 14 54 25 65 21 24 31
107 13 111 -6 2 -10 -17 -10 -42 0 -24 -6 -50 -12 -56 -11 -10 -13 7 -13 89 0
90 3 107 22 132 18 24 20 34 11 53 -6 14 -23 27 -37 31 -65 16 -92 -49 -43
-101 21 -23 18 -27 -17 -23 -16 1 -17 -3 -12 -27 4 -15 14 -35 21 -43 14 -16
26 -200 13 -200 -4 0 -15 11 -24 25 -13 21 -15 39 -10 91 6 60 5 65 -11 62
-13 -3 -17 -11 -14 -28 7 -47 6 -65 -4 -65 -5 0 -10 11 -10 25 0 16 -6 25 -15
25 -29 0 -10 -48 40 -106 42 -48 50 -64 50 -98 0 -33 -6 -46 -37 -75 l-38 -36
-3 47 c-2 27 -12 59 -24 76 -15 21 -19 38 -15 63 4 26 2 37 -9 41 -22 8 -29
-4 -16 -32 6 -13 8 -27 3 -29 -18 -11 -39 31 -44 86 -5 56 -4 57 34 88 22 17
39 39 39 49 0 10 9 30 21 44 11 15 22 34 24 44 2 10 5 24 7 32 1 8 -5 17 -16
19 -16 3 -18 0 -12 -31 5 -26 2 -38 -10 -48 -16 -13 -17 -8 -11 63 5 77 -1
100 -21 75z m163 -63 c0 -10 -8 -20 -17 -22 -18 -3 -26 27 -11 42 12 11 28 0
28 -20z m-285 -15 c0 -5 -7 -9 -15 -9 -15 0 -20 12 -9 23 8 8 24 -1 24 -14z
m500 -80 c0 -5 -7 -9 -15 -9 -15 0 -20 12 -9 23 8 8 24 -1 24 -14z m-249 -32
c-8 -8 -11 -7 -11 4 0 9 3 19 7 23 4 4 9 2 11 -4 3 -7 -1 -17 -7 -23z m459
-148 c0 -5 -7 -9 -15 -9 -15 0 -20 12 -9 23 8 8 24 -1 24 -14z m-750 -129 c0
-5 -7 -10 -15 -10 -8 0 -15 5 -15 10 0 6 7 10 15 10 8 0 15 -4 15 -10z m859
-99 c17 -11 7 -41 -13 -41 -19 0 -29 17 -22 35 6 17 15 18 35 6z m101 -246 c0
-8 -4 -15 -9 -15 -13 0 -22 16 -14 24 11 11 23 6 23 -9z m-748 -10 c0 -5 -5
-11 -11 -13 -6 -2 -11 4 -11 13 0 9 5 15 11 13 6 -2 11 -8 11 -13z m308 -200
c0 -8 -4 -15 -10 -15 -5 0 -10 7 -10 15 0 8 5 15 10 15 6 0 10 -7 10 -15z
m497 -36 c14 -14 6 -39 -12 -39 -18 0 -28 17 -21 35 6 18 18 19 33 4z m-1027
-159 c0 -5 13 -10 29 -10 17 0 33 5 36 10 10 16 20 12 54 -21 19 -17 30 -37
27 -45 -3 -8 1 -14 9 -14 19 0 20 -16 1 -23 -14 -5 -16 -43 -3 -64 4 -6 2 -24
-5 -39 -16 -34 -68 -93 -68 -76 0 17 -44 26 -68 13 -34 -18 -42 5 -42 130 0
69 4 120 10 124 6 4 8 11 5 16 -4 5 -1 9 4 9 6 0 11 -4 11 -10z m1010 -90 c0
-5 -7 -10 -15 -10 -8 0 -15 5 -15 10 0 6 7 10 15 10 8 0 15 -4 15 -10z m-13
-311 c14 -14 6 -39 -12 -39 -18 0 -28 17 -21 35 6 18 18 19 33 4z m-330 -65
c-9 -9 -28 6 -21 18 4 6 10 6 17 -1 6 -6 8 -13 4 -17z m263 -219 c0 -8 -4 -15
-10 -15 -5 0 -10 7 -10 15 0 8 5 15 10 15 6 0 10 -7 10 -15z m-110 -230 c0 -9
-7 -18 -16 -22 -18 -7 -39 11 -30 26 11 17 46 13 46 -4z m-203 -181 c-9 -9
-28 6 -21 18 4 6 10 6 17 -1 6 -6 8 -13 4 -17z m-557 -70 c0 -9 -5 -14 -12
-12 -18 6 -21 28 -4 28 9 0 16 -7 16 -16z m280 -24 c0 -13 -7 -20 -20 -20 -13
0 -20 7 -20 20 0 13 7 20 20 20 13 0 20 -7 20 -20z"/>
<path d="M970 2527 c-41 -24 -62 -45 -82 -81 -21 -39 -40 -58 -91 -88 -60 -35
-86 -63 -72 -77 3 -3 9 -1 13 5 11 16 55 44 70 44 7 0 -3 -17 -23 -37 -37 -38
-50 -68 -43 -100 5 -22 54 -21 99 2 24 13 29 13 29 2 0 -28 -51 -67 -87 -67
-26 0 -43 -8 -68 -33 -69 -69 -68 -166 1 -235 19 -19 33 -37 30 -39 -12 -12
-51 13 -104 68 -78 79 -92 78 -136 -8 -15 -30 -27 -73 -29 -100 l-2 -47 57 -8
c66 -8 154 -43 169 -67 8 -12 8 -10 3 9 -3 14 -7 25 -8 26 0 0 -16 11 -35 24
-19 13 -31 17 -26 9 7 -11 6 -12 -6 -2 -9 7 -40 16 -70 20 -48 7 -54 11 -57
34 -4 36 43 139 63 139 9 0 43 -26 75 -57 59 -57 92 -72 116 -52 13 10 16 51
3 43 -11 -7 -60 57 -53 68 5 7 2 8 -6 3 -9 -6 -11 3 -9 39 2 25 0 46 -4 46 -5
0 2 18 14 39 23 41 47 55 111 66 25 4 39 12 43 25 4 12 11 17 18 14 7 -4 9 -4
5 1 -4 4 -3 14 3 21 15 19 4 44 -19 44 -11 0 -35 -7 -55 -15 -32 -13 -36 -13
-41 2 -7 17 25 70 50 86 7 4 11 18 8 31 -3 18 4 29 32 47 21 14 37 35 41 52 3
15 10 27 15 27 5 0 7 4 3 9 -6 10 42 48 65 51 33 5 42 0 37 -20 -3 -11 -1 -23
5 -26 6 -4 -11 -26 -37 -50 -26 -24 -43 -44 -39 -44 4 0 0 -8 -8 -17 -23 -26
-38 -89 -38 -165 0 -55 -4 -71 -23 -95 -47 -57 -63 -137 -46 -223 13 -65 9
-80 -16 -60 -9 7 -15 9 -14 4 1 -5 0 -11 -1 -14 -10 -26 -4 -49 20 -80 19 -24
26 -41 20 -50 -5 -8 -7 -17 -5 -20 7 -11 -131 -4 -160 9 -16 7 -56 18 -87 24
-73 13 -103 -3 -113 -63 -9 -53 -28 -47 -35 10 -7 60 -27 63 -35 6 -10 -63 -1
-91 34 -106 35 -14 44 -12 179 47 102 44 168 56 218 39 19 -6 22 -2 27 36 5
36 2 46 -24 77 -29 36 -37 61 -20 61 6 0 13 -4 16 -10 3 -5 17 -10 30 -10 21
0 23 3 15 28 -4 15 -15 44 -24 64 -29 68 -16 142 38 212 19 26 24 47 28 128 6
115 25 158 90 207 45 33 45 34 32 69 -7 23 -9 45 -3 59 12 32 -5 30 -71 -10z
m-337 -878 c44 -12 47 -21 10 -40 -38 -19 -51 -23 -33 -10 11 8 11 11 2 11 -7
0 -15 -6 -18 -14 -3 -8 -17 -18 -32 -22 -31 -9 -32 -9 -52 -16 -33 -13 -58
-15 -71 -6 -11 8 -10 9 2 5 15 -5 68 38 62 49 -8 12 -1 34 13 49 17 16 31 16
117 -6z"/>
<path d="M1222 2421 c-15 -9 -15 -17 0 -45 8 -14 7 -17 -3 -11 -9 6 -11 3 -6
-8 9 -24 -16 -38 -80 -44 -83 -8 -101 -22 -30 -23 66 0 123 22 132 51 4 11 4
33 0 49 -4 17 -3 30 2 30 21 0 33 -28 33 -76 0 -39 -6 -59 -25 -85 -13 -19
-32 -48 -41 -66 -20 -37 -38 -35 -24 3 18 47 14 54 -37 54 -27 0 -60 7 -75 14
-25 13 -28 13 -28 0 0 -18 13 -23 76 -32 48 -7 49 -8 46 -39 -3 -33 7 -47 30
-38 15 6 78 99 78 115 0 5 4 10 8 10 8 0 15 37 14 78 0 27 -28 72 -45 72 -6 0
-18 -4 -25 -9z"/>
<path d="M627 2170 c-33 -28 -67 -93 -82 -152 -7 -26 -6 -26 30 -18 43 10 38
6 60 50 10 19 28 49 41 65 15 21 21 38 17 58 -7 35 -24 34 -66 -3z m43 -13 c0
-18 -77 -137 -88 -137 -20 0 16 94 47 122 35 32 41 34 41 15z"/>
<path d="M1255 2118 c-11 -6 -22 -15 -25 -19 -3 -4 -32 -9 -65 -12 -33 -2 -68
-6 -78 -9 -25 -6 -85 -70 -80 -85 8 -20 23 -15 23 6 0 36 58 66 125 66 46 1
68 6 92 23 50 35 71 27 33 -13 l-20 -22 22 -41 c28 -50 18 -65 -20 -29 -32 31
-72 47 -114 47 -33 0 -118 -44 -118 -60 0 -14 16 -12 32 3 27 27 137 50 122
25 -5 -7 -2 -9 8 -6 8 3 34 -7 58 -23 31 -21 46 -26 56 -19 13 12 12 59 -3 69
-10 7 -10 29 1 53 19 42 -9 69 -49 46z"/>
<path d="M756 1560 c-37 -11 -72 -44 -103 -98 -27 -46 -50 -42 -32 5 12 31 11
53 -1 53 -5 0 -31 -14 -57 -30 -42 -27 -56 -30 -106 -28 -54 3 -61 0 -83 -25
-35 -41 -34 -123 2 -166 27 -33 75 -42 114 -21 10 5 44 16 75 25 52 13 67 13
169 -5 213 -36 274 -74 344 -213 46 -91 75 -118 142 -132 22 -5 55 -28 95 -65
71 -69 104 -81 135 -50 19 19 20 29 15 78 -19 179 -58 248 -177 317 -47 26
-65 51 -30 41 9 -3 35 -10 57 -15 22 -6 54 -19 72 -30 l31 -20 7 36 c16 85
-36 184 -120 226 -40 20 -91 23 -196 13 -48 -4 -97 -5 -109 -1 -13 4 -44 27
-70 51 -66 62 -106 74 -174 54z m102 -29 c2 -6 8 -11 12 -11 5 0 24 -14 42
-31 57 -53 89 -62 198 -53 52 5 106 7 120 6 44 -5 103 -32 126 -59 24 -29 58
-143 45 -156 -4 -4 -32 3 -62 16 -30 12 -64 21 -76 19 -24 -4 -54 -32 -34 -32
7 0 10 -4 7 -8 -3 -5 14 -19 37 -32 44 -24 94 -60 84 -60 -3 0 7 -13 23 -28
30 -31 45 -74 55 -162 3 -30 9 -63 11 -73 3 -10 -2 -27 -11 -37 -16 -17 -20
-18 -44 -6 -28 15 -111 103 -104 110 3 3 -5 2 -18 -1 -17 -5 -20 -3 -14 7 6
10 4 12 -8 7 -26 -10 -83 19 -109 55 -13 18 -37 58 -52 90 -27 55 -98 133
-110 121 -3 -4 -6 -2 -6 4 0 6 -15 16 -32 23 -18 7 -42 16 -53 20 -73 29 -248
54 -302 44 -21 -4 -54 -14 -73 -22 -50 -21 -97 -22 -116 -1 -24 27 -29 90 -10
127 15 29 21 32 65 32 67 0 106 9 129 30 19 18 20 18 20 -7 0 -18 -3 -21 -9
-12 -6 10 -9 10 -9 2 0 -14 38 -38 60 -38 8 0 21 13 29 29 20 40 78 99 90 92
5 -4 12 -2 15 3 8 13 79 6 84 -8z"/>
<path d="M2416 1265 c-23 -34 -20 -38 14 -20 17 9 30 22 30 30 0 23 -26 18
-44 -10z"/>
<path d="M528 1210 c-31 -10 -77 -22 -103 -26 -67 -10 -79 -49 -31 -102 68
-76 166 -66 166 16 0 47 24 40 39 -10 20 -68 63 -140 96 -160 60 -36 124 -16
151 49 23 54 40 36 36 -39 -5 -79 18 -132 75 -175 34 -26 42 -28 129 -27 88 1
92 1 81 -17 -16 -25 -1 -48 47 -75 59 -33 16 -40 -53 -9 -31 15 -89 33 -130
40 -90 18 -112 32 -147 92 -39 69 -54 83 -85 83 -30 0 -69 -40 -69 -71 0 -10
-4 -20 -9 -24 -16 -9 -31 30 -31 78 0 40 -5 49 -43 84 -49 46 -85 59 -174 67
-72 7 -82 -7 -38 -48 20 -19 42 -25 100 -31 51 -4 82 -13 100 -27 29 -23 35
-54 8 -44 -16 6 -140 25 -169 26 -6 0 -28 11 -48 25 -20 13 -36 22 -36 19 0
-28 92 -144 115 -144 7 0 18 14 24 32 13 37 23 30 40 -32 20 -69 91 -134 163
-150 72 -16 88 -10 88 35 0 45 16 46 24 1 9 -46 41 -85 90 -107 37 -17 126
-26 126 -14 0 3 -9 24 -21 46 l-20 41 43 -30 c84 -57 109 -66 188 -66 61 -1
82 3 113 23 45 28 56 46 67 114 11 72 1 93 -50 100 -31 4 -56 18 -105 62 -39
34 -83 62 -112 72 -72 24 -104 53 -148 133 -59 107 -85 130 -148 130 -34 0
-63 -7 -84 -20 -23 -14 -33 -16 -33 -7 0 21 30 57 48 58 9 0 -5 11 -33 25 -62
30 -154 31 -237 4z m198 -12 c31 -11 31 -11 15 -39 -15 -26 -15 -30 1 -45 15
-15 21 -16 45 -5 46 22 106 22 139 0 16 -10 25 -19 21 -19 -5 0 -2 -7 5 -15
24 -26 33 -40 58 -89 30 -57 65 -87 140 -116 65 -26 82 -38 73 -54 -3 -6 -2
-8 2 -3 11 10 46 -23 38 -36 -3 -6 -1 -7 5 -3 7 4 19 1 27 -6 9 -7 21 -17 28
-23 7 -5 26 -12 42 -14 42 -4 45 -8 45 -46 0 -46 -16 -85 -46 -113 -29 -28
-51 -33 -126 -33 -57 0 -138 30 -138 51 0 6 -3 9 -7 8 -5 -1 -21 4 -37 11 -33
13 -66 -3 -46 -23 5 -5 10 -18 10 -27 0 -15 -6 -17 -37 -12 -48 7 -101 46
-110 81 -3 15 -13 34 -21 42 -16 16 -55 23 -46 9 3 -5 1 -9 -4 -9 -6 0 -9 -8
-8 -17 2 -29 -44 -32 -95 -7 -52 26 -96 72 -105 112 -4 15 -11 33 -17 40 -11
14 -7 15 50 16 38 1 42 -1 49 -29 3 -16 6 -32 6 -35 0 -3 12 -7 28 -8 24 -2
30 3 41 31 27 74 69 68 113 -17 32 -62 64 -81 164 -102 42 -9 89 -22 104 -30
15 -8 47 -17 71 -20 35 -5 45 -3 50 10 6 16 -34 66 -53 66 -4 0 -10 9 -13 20
-3 11 -1 18 3 15 5 -3 8 4 7 15 -2 27 -26 33 -97 25 -33 -4 -65 -3 -72 1 -7 5
-18 9 -24 10 -27 4 -66 40 -84 76 -15 31 -18 54 -14 98 3 36 1 61 -6 65 -5 3
-8 10 -5 15 3 4 -3 7 -12 5 -10 -2 -21 -4 -25 -4 -4 -1 -19 -18 -32 -40 -57
-90 -159 -44 -197 90 -15 55 -40 83 -66 75 -12 -4 -20 -17 -21 -38 -2 -18 -10
-40 -19 -48 -14 -13 -15 -13 -7 0 6 12 5 13 -7 4 -31 -24 -119 28 -119 72 0
18 11 23 53 26 21 1 37 6 37 11 0 4 5 5 10 2 6 -4 21 0 33 8 12 7 32 13 44 12
12 -1 20 2 18 5 -7 12 107 9 141 -2z m-136 -263 c13 -14 8 -15 -45 -10 -74 7
-95 13 -95 27 0 16 121 1 140 -17z m-78 -121 c-2 -11 -10 -21 -17 -21 -8 0
-12 4 -10 8 3 4 -2 9 -10 13 -25 9 -17 25 13 23 23 -2 27 -6 24 -23z"/>
<path d="M2255 1050 c16 -32 29 -37 41 -19 4 7 -4 20 -17 30 -34 27 -42 23
-24 -11z"/>
<path d="M440 717 c0 -27 62 -106 106 -135 24 -17 77 -38 117 -47 114 -28 138
-41 207 -114 101 -107 143 -111 354 -31 136 51 181 74 200 102 31 43 17 47
-48 13 -81 -42 -151 -52 -242 -33 -38 8 -80 11 -94 7 -43 -12 -110 -10 -138 5
-15 8 -37 28 -50 45 -21 28 -28 31 -80 31 -71 0 -114 20 -237 105 -57 40 -95
61 -95 52z m148 -116 c15 -8 22 -16 15 -18 -17 -6 -87 41 -108 73 -18 27 -17
27 24 -6 23 -19 54 -41 69 -49z m266 -105 c61 -56 73 -59 178 -42 26 5 56 5
65 1 19 -8 35 -10 101 -13 30 -1 42 -6 42 -17 0 -8 -3 -14 -7 -13 -5 1 -24 -4
-43 -11 -38 -15 -43 -16 -80 -27 -74 -20 -168 -15 -154 8 5 7 3 8 -6 3 -12 -8
-28 7 -80 75 -26 33 -73 64 -84 53 -3 -4 -6 -2 -6 4 0 31 27 23 74 -21z m431
-56 c-27 -12 -43 -12 -25 0 8 5 22 9 30 9 10 0 8 -3 -5 -9z"/>
<path d="M646 481 c-3 -5 21 -34 54 -64 76 -71 186 -126 265 -134 69 -6 66 4
-10 32 -33 12 -72 40 -117 83 -51 49 -77 66 -110 73 -24 5 -50 12 -60 15 -9 3
-19 1 -22 -5z m99 -41 c-12 20 37 -9 60 -36 45 -50 63 -74 58 -74 -3 0 -32 18
-65 40 -33 22 -64 40 -69 40 -8 0 -29 32 -29 45 0 4 12 0 26 -10 15 -9 23 -12
19 -5z"/>
<path d="M1334 381 c-141 -50 -158 -68 -112 -126 20 -26 24 -27 97 -23 42 3
84 8 95 13 38 17 10 -19 -34 -42 -55 -30 -102 -29 -218 2 -51 14 -114 25 -140
24 -26 0 -42 -2 -37 -4 6 -2 73 -20 149 -40 177 -47 216 -45 284 12 26 22 48
47 50 56 5 24 -32 38 -114 44 -41 3 -74 9 -74 12 0 4 28 12 61 18 65 12 109
43 109 75 0 22 7 23 -116 -21z m-58 -50 c-12 -13 -14 -21 -6 -26 5 -3 8 -10 5
-15 -3 -4 2 -11 11 -14 8 -3 12 -2 9 4 -6 9 54 3 89 -10 17 -6 17 -7 3 -13
-10 -4 -17 -2 -17 5 0 7 -5 7 -14 -1 -15 -12 -94 -9 -116 4 -20 12 -10 50 18
67 36 22 38 21 18 -1z"/>
</g>
</svg>
